<?xml version="1.0" encoding="iso-8859-1"?>
<!-- Generator: Adobe Illustrator 19.0.0, SVG Export Plug-In . SVG Version: 6.00 Build 0)  -->
<svg version="1.1" id="Capa_1" xmlns="http://www.w3.org/2000/svg" xmlns:xlink="http://www.w3.org/1999/xlink" x="0px" y="0px"
	 viewBox="0 0 511.999 511.999" style="enable-background:new 0 0 511.999 511.999;" xml:space="preserve">
<g>
	<g>
		<path d="M444.85,434.107V284.595c13.54-1.143,24.175-12.488,24.175-26.323v-23.31c0-6.601-5.351-11.952-11.952-11.952H56.287
			c-6.601,0-11.952,5.351-11.952,11.952v23.31c0,13.369,9.93,24.412,22.815,26.173v149.66
			c-17.507,3.737-30.679,19.318-30.679,37.924v1.188c0,21.384,17.398,38.781,38.782,38.781h361.495
			c21.384,0,38.781-17.398,38.781-38.781v-1.188C475.529,453.425,462.357,437.843,444.85,434.107z M246.399,388.092
			c0,13.715-11.158,24.873-24.873,24.873h-76.911c-13.715,0-24.873-11.158-24.873-24.873V284.697h30.005v37.068
			c0,1.528,1.566,2.555,2.968,1.946l62.404-27.121c0.775-0.337,1.276-1.101,1.276-1.946v-9.948h30.005V388.092z M395.529,388.092
			c0,13.715-11.158,24.873-24.873,24.873h-76.91c-13.715,0-24.873-11.158-24.873-24.873v-16.555c-0.006-0.198-0.002-0.395,0-0.593
			v-86.247h30.004v56.346c0,1.643,1.788,2.663,3.203,1.825l62.404-36.952c0.645-0.382,1.041-1.076,1.041-1.825v-19.393h30.005
			V388.092z"/>
	</g>
</g>
<g>
	<g>
		<path d="M362.32,342.062l-62.404,36.952c-0.645,0.382-1.041,1.076-1.041,1.825c0.001,1.171,0.951,2.121,2.122,2.121h62.404
			c1.172,0,2.121-0.95,2.121-2.121v-36.952C365.523,342.244,363.735,341.224,362.32,342.062z"/>
	</g>
</g>
<g>
	<g>
		<path d="M213.425,329.948l-62.404,27.121c-0.775,0.337-1.276,1.101-1.276,1.946v21.825c0.001,1.171,0.951,2.121,2.122,2.121
			h62.404c1.172,0,2.121-0.95,2.121-2.121v-48.945C216.393,330.366,214.826,329.339,213.425,329.948z"/>
	</g>
</g>
<g>
	<g>
		<path d="M476.177,0H35.823C27.538,0,20.82,6.717,20.82,15.003s6.717,15.003,15.003,15.003h8.512v23.792
			c0,6.601,5.351,11.952,11.952,11.952h400.784c6.601,0,11.952-5.351,11.952-11.952V30.005h7.152
			c8.285,0,15.003-6.717,15.003-15.003S484.463,0,476.177,0z"/>
	</g>
</g>
<g>
	<g>
		<path d="M457.072,160.435H56.287c-6.601,0-11.952,5.351-11.952,11.952v8.665c0,6.601,5.351,11.952,11.952,11.952h400.784
			c6.601,0,11.952-5.351,11.952-11.952v-8.665C469.024,165.786,463.673,160.435,457.072,160.435z"/>
	</g>
</g>
<g>
	<g>
		<path d="M457.072,95.755H56.287c-6.601,0-11.952,5.351-11.952,11.952v10.771c0,6.601,5.351,11.952,11.952,11.952h400.784
			c6.601,0,11.952-5.351,11.952-11.952v-10.771C469.024,101.106,463.673,95.755,457.072,95.755z"/>
	</g>
</g>
<g>
</g>
<g>
</g>
<g>
</g>
<g>
</g>
<g>
</g>
<g>
</g>
<g>
</g>
<g>
</g>
<g>
</g>
<g>
</g>
<g>
</g>
<g>
</g>
<g>
</g>
<g>
</g>
<g>
</g>
</svg>
