<?xml version='1.0' encoding='iso-8859-1'?>
<!DOCTYPE svg PUBLIC '-//W3C//DTD SVG 1.1//EN' 'http://www.w3.org/Graphics/SVG/1.1/DTD/svg11.dtd'>
<svg version="1.1" xmlns="http://www.w3.org/2000/svg" viewBox="0 0 297 297" xmlns:xlink="http://www.w3.org/1999/xlink" enable-background="new 0 0 297 297">
  <g>
    <path d="m138.299,148.5c0,5.625 4.576,10.201 10.201,10.201s10.201-4.576 10.201-10.201-4.576-10.201-10.201-10.201-10.201,4.576-10.201,10.201z"/>
    <path d="m287.117,138.898h9.883c-4.763-74.425-64.475-134.135-138.898-138.898v9.883c0,5.302-4.3,9.601-9.602,9.601-5.302,0-9.602-4.299-9.602-9.601v-9.883c-74.423,4.763-134.135,64.473-138.898,138.898h9.883c5.302,0 9.601,4.299 9.601,9.602s-4.299,9.602-9.601,9.602h-9.883c4.763,74.425 64.475,134.134 138.898,138.898v-9.883c0-5.302 4.3-9.602 9.602-9.602 5.302,0 9.602,4.3 9.602,9.602v9.883c74.424-4.764 134.136-64.473 138.898-138.898h-9.883c-5.302,0-9.601-4.299-9.601-9.602s4.299-9.602 9.601-9.602zm-109.214,9.602c0,16.214-13.189,29.403-29.403,29.403s-29.403-13.189-29.403-29.403c0-6.678 2.241-12.841 6.006-17.783l-24.196-36.299c-2.941-4.412-1.748-10.373 2.663-13.314 4.414-2.941 10.374-1.748 13.314,2.663l24.185,36.282c2.375-0.62 4.864-0.953 7.431-0.953 16.214,2.84217e-14 29.403,13.19 29.403,29.404zm-29.403,118.515c-65.35,0-118.515-53.165-118.515-118.515s53.165-118.515 118.515-118.515c5.302,0 9.602,4.299 9.602,9.601 0,5.303-4.3,9.602-9.602,9.602-54.762,0-99.313,44.551-99.313,99.313s44.551,99.313 99.313,99.313 99.313-44.551 99.313-99.313c0-5.303 4.299-9.602 9.602-9.602 5.302,0 9.6,4.299 9.6,9.602 0,65.349-53.165,118.514-118.515,118.514z"/>
  </g>
</svg>
