<?xml version="1.0"?>
<svg xmlns="http://www.w3.org/2000/svg" viewBox="0 0 64 64" width="512" height="512"><title>Coding-Code-website-program-design</title><g id="Expand"><path d="M46,57V54h6a4,4,0,0,0,4-4V20a4,4,0,0,0,4-4V6a4,4,0,0,0-4-4H36a4,4,0,0,0-4,4H12a4,4,0,0,0-4,4V40H5a1,1,0,0,0-1,1V57a1,1,0,0,0,1,1H45A1,1,0,0,0,46,57ZM34,6a2,2,0,0,1,2-2H56a2,2,0,0,1,2,2V16a2,2,0,0,1-2,2H44a1.006,1.006,0,0,0-.555.168L39,21.132V19a1,1,0,0,0-1-1H36a2,2,0,0,1-2-2ZM10,16H30V14H10V10a2,2,0,0,1,2-2H32v8a4,4,0,0,0,4,4h1v3a1,1,0,0,0,1.555.832L44.3,20H54V50a2,2,0,0,1-2,2H46V41a1,1,0,0,0-1-1H10ZM44,56H6V42H44Z"/><rect x="8" y="52" width="2" height="2"/><rect x="8" y="48" width="4" height="2"/><rect x="14" y="48" width="2" height="2"/><rect x="18" y="48" width="2" height="2"/><rect x="22" y="48" width="2" height="2"/><rect x="26" y="48" width="2" height="2"/><rect x="30" y="48" width="2" height="2"/><rect x="34" y="48" width="2" height="2"/><rect x="38" y="48" width="4" height="2"/><rect x="8" y="44" width="2" height="2"/><rect x="12" y="44" width="2" height="2"/><rect x="16" y="44" width="2" height="2"/><rect x="20" y="44" width="2" height="2"/><rect x="24" y="44" width="2" height="2"/><rect x="28" y="44" width="2" height="2"/><rect x="32" y="44" width="2" height="2"/><rect x="36" y="44" width="2" height="2"/><rect x="40" y="44" width="2" height="2"/><rect x="12" y="52" width="2" height="2"/><rect x="40" y="52" width="2" height="2"/><rect x="36" y="52" width="2" height="2"/><rect x="16" y="52" width="18" height="2"/><rect x="12" y="10" width="2" height="2"/><rect x="16" y="10" width="2" height="2"/><rect x="20" y="10" width="2" height="2"/><path d="M15.293,19.293l-2,2a1,1,0,0,0,0,1.414l2,2,1.414-1.414L15.414,22l1.293-1.293Z"/><path d="M22.707,24.707l2-2a1,1,0,0,0,0-1.414l-2-2-1.414,1.414L22.586,22l-1.293,1.293Z"/><rect x="15.838" y="21" width="6.325" height="1.999" transform="translate(-7.883 33.06) rotate(-71.547)"/><rect x="27" y="23" width="2" height="2"/><rect x="13" y="27" width="2" height="2"/><rect x="13" y="31" width="2" height="2"/><rect x="13" y="35" width="2" height="2"/><rect x="17" y="27" width="28" height="2"/><rect x="31" y="23" width="2" height="2"/><rect x="17" y="31" width="4" height="2"/><rect x="17" y="35" width="4" height="2"/><rect x="23" y="35" width="4" height="2"/><rect x="29" y="35" width="4" height="2"/><rect x="23" y="31" width="4" height="2"/><rect x="29" y="31" width="4" height="2"/><rect x="35" y="31" width="4" height="2"/><rect x="47" y="27" width="4" height="2"/><rect x="10" y="60" width="26" height="2"/><path d="M4,9V25H6V9a5.006,5.006,0,0,1,5-5h4V2H11A7.009,7.009,0,0,0,4,9Z"/><rect x="58" y="45" width="2" height="2"/><rect x="58" y="25" width="2" height="18"/><path d="M38.293,11.707l1.414-1.414L38.414,9l1.293-1.293L38.293,6.293l-2,2a1,1,0,0,0,0,1.414Z"/><path d="M45.707,11.707l2-2a1,1,0,0,0,0-1.414l-2-2L44.293,7.707,45.586,9l-1.293,1.293Z"/><rect x="38.838" y="8" width="6.325" height="1.999" transform="translate(20.169 45.992) rotate(-71.547)"/><rect x="50" y="8" width="2" height="2"/><rect x="36" y="14" width="2" height="2"/><rect x="40" y="14" width="16" height="2"/><rect x="54" y="8" width="2" height="2"/></g></svg>
