<?xml version="1.0"?>
<svg xmlns="http://www.w3.org/2000/svg" viewBox="0 0 64 64" width="512" height="512"><g id="outline"><path d="M20,50H44a3,3,0,0,0,3-3V17a3,3,0,0,0-3-3H20a3,3,0,0,0-3,3V47A3,3,0,0,0,20,50ZM19,17a1,1,0,0,1,1-1H44a1,1,0,0,1,1,1V33H38.754l-1.792-6.275A1,1,0,0,0,36,26h-.025a1,1,0,0,0-.95.775l-2.2,9.537-1.877-5.628a1,1,0,0,0-1.91.041L26.217,40.6l-1.234-6.781A1,1,0,0,0,24,33H19Zm0,18h4.165l1.852,10.179a1,1,0,0,0,.934.82H26a1,1,0,0,0,.962-.725l3.111-10.892,1.979,5.933a.982.982,0,0,0,1,.683,1,1,0,0,0,.927-.774L36.1,31l.934,3.275A1,1,0,0,0,38,35h7V47a1,1,0,0,1-1,1H20a1,1,0,0,1-1-1Z"/><path d="M19,53.92V61a1,1,0,0,0,1,1H44a1,1,0,0,0,1-1V53.92A7.006,7.006,0,0,0,51,47V17a7.006,7.006,0,0,0-6-6.92V3a1,1,0,0,0-1-1H20a1,1,0,0,0-1,1v7.08A7.006,7.006,0,0,0,13,17V47A7.006,7.006,0,0,0,19,53.92ZM43,60H21V54H43ZM21,4H43v6H21ZM15,17a5.006,5.006,0,0,1,5-5H44a5.006,5.006,0,0,1,5,5V47a5.006,5.006,0,0,1-5,5H20a5.006,5.006,0,0,1-5-5Z"/><path d="M27,18H21v6h6Zm-2,4H23V20h2Z"/><rect x="29" y="22" width="10" height="2"/><rect x="29" y="18" width="8" height="2"/><rect x="41" y="22" width="2" height="2"/><rect x="39" y="39" width="4" height="2"/><rect x="39" y="43" width="4" height="2"/></g></svg>
